<svg width="100%" viewBox="0 0 680 182.83" xmlns="http://www.w3.org/2000/svg">
  

  <g transform="translate(60, 28)" style="fill:rgb(0, 0, 0);stroke:none;color:rgb(255, 255, 255);stroke-width:1px;stroke-linecap:butt;stroke-linejoin:miter;opacity:1;font-family:&quot;Anthropic Sans&quot;, -apple-system, &quot;system-ui&quot;, &quot;Segoe UI&quot;, sans-serif;font-size:16px;font-weight:400;text-anchor:start;dominant-baseline:auto">

    <path d="M0,38 C18,38 22,18 50,18 C78,18 82,52 110,48 C138,44 148,22 175,26 C202,30 208,50 235,46 C262,42 268,24 295,28 C322,32 328,50 355,46 C375,43 385,34 400,32" stroke="#1D9E75" stroke-width="5.5" fill="none" stroke-linecap="round" stroke-linejoin="round" opacity="0.18" style="fill:none;stroke:rgb(29, 158, 117);color:rgb(255, 255, 255);stroke-width:5.5px;stroke-linecap:round;stroke-linejoin:round;opacity:0.18;font-family:&quot;Anthropic Sans&quot;, -apple-system, &quot;system-ui&quot;, &quot;Segoe UI&quot;, sans-serif;font-size:16px;font-weight:400;text-anchor:start;dominant-baseline:auto"/>

    <path d="M0,38 C18,38 22,18 50,18 C78,18 82,52 110,48 C138,44 148,22 175,26 C202,30 208,50 235,46 C262,42 268,24 295,28 C322,32 328,50 355,46 C375,43 385,34 400,32" stroke="#1D9E75" stroke-width="2.5" fill="none" stroke-linecap="round" stroke-linejoin="round" style="fill:none;stroke:rgb(29, 158, 117);color:rgb(255, 255, 255);stroke-width:2.5px;stroke-linecap:round;stroke-linejoin:round;opacity:1;font-family:&quot;Anthropic Sans&quot;, -apple-system, &quot;system-ui&quot;, &quot;Segoe UI&quot;, sans-serif;font-size:16px;font-weight:400;text-anchor:start;dominant-baseline:auto"/>

    <path d="M8,42 C26,42 28,28 55,30 C82,32 86,54 112,52 C138,50 150,30 177,32 C204,34 210,52 237,50 C264,48 270,30 297,32 C318,34 326,48 348,46 C362,44 378,38 400,36" stroke="#5DCAA5" stroke-width="1" fill="none" stroke-linecap="round" stroke-linejoin="round" opacity="0.5" style="fill:none;stroke:rgb(93, 202, 165);color:rgb(255, 255, 255);stroke-width:1px;stroke-linecap:round;stroke-linejoin:round;opacity:0.5;font-family:&quot;Anthropic Sans&quot;, -apple-system, &quot;system-ui&quot;, &quot;Segoe UI&quot;, sans-serif;font-size:16px;font-weight:400;text-anchor:start;dominant-baseline:auto"/>

    <circle cx="0" cy="38" r="3.5" fill="#1D9E75" opacity="0.5" style="fill:rgb(29, 158, 117);stroke:none;color:rgb(255, 255, 255);stroke-width:1px;stroke-linecap:butt;stroke-linejoin:miter;opacity:0.5;font-family:&quot;Anthropic Sans&quot;, -apple-system, &quot;system-ui&quot;, &quot;Segoe UI&quot;, sans-serif;font-size:16px;font-weight:400;text-anchor:start;dominant-baseline:auto"/>
    <circle cx="400" cy="32" r="2.5" fill="#1D9E75" opacity="0.35" style="fill:rgb(29, 158, 117);stroke:none;color:rgb(255, 255, 255);stroke-width:1px;stroke-linecap:butt;stroke-linejoin:miter;opacity:0.35;font-family:&quot;Anthropic Sans&quot;, -apple-system, &quot;system-ui&quot;, &quot;Segoe UI&quot;, sans-serif;font-size:16px;font-weight:400;text-anchor:start;dominant-baseline:auto"/>

    <text x="0" y="90" font-family="var(--font-sans)" font-size="34" font-weight="700" letter-spacing="1" style="fill: var(--color-text-primary);fill:rgb(250, 249, 245);stroke:none;color:rgb(255, 255, 255);stroke-width:1px;stroke-linecap:butt;stroke-linejoin:miter;opacity:1;font-family:&quot;Anthropic Sans&quot;, sans-serif;font-size:34px;font-weight:700;text-anchor:start;dominant-baseline:auto">ROGUE VALLEY</text>
    <text x="0" y="114" font-family="var(--font-sans)" font-size="14" font-weight="400" letter-spacing="7" fill="#1D9E75" style="fill:rgb(29, 158, 117);stroke:none;color:rgb(255, 255, 255);stroke-width:1px;stroke-linecap:butt;stroke-linejoin:miter;opacity:1;font-family:&quot;Anthropic Sans&quot;, sans-serif;font-size:14px;font-weight:400;text-anchor:start;dominant-baseline:auto">LIVE  MUSIC</text>

  </g>

  <text x="340" y="154" text-anchor="middle" style="fill:rgb(194, 192, 182);stroke:none;color:rgb(255, 255, 255);stroke-width:1px;stroke-linecap:butt;stroke-linejoin:miter;opacity:1;font-family:&quot;Anthropic Sans&quot;, sans-serif;font-size:11px;font-weight:400;text-anchor:middle;dominant-baseline:auto">Wordmark — teal palette</text>
  <text x="340" y="170" text-anchor="middle" style="fill:rgb(156, 154, 146);stroke:none;color:rgb(255, 255, 255);stroke-width:1px;stroke-linecap:butt;stroke-linejoin:miter;opacity:1;font-family:&quot;Anthropic Sans&quot;, sans-serif;font-size:10px;font-weight:400;text-anchor:middle;dominant-baseline:auto">Rogue River meander · dual channel · forest teal</text>
</svg>