<svg width="82" height="82" viewBox="0 0 82 82" fill="none" xmlns="http://www.w3.org/2000/svg">
<g clip-path="url(#clip0_5_101)">
<rect width="82" height="82" rx="12" fill="#062A22"/>
<path d="M41 29.6111C51.9039 29.6111 58.6225 31.7474 64.466 33.845C70.2403 35.9179 74.8473 37.8111 82 37.8111C83.258 37.8111 84.2778 38.8309 84.2778 40.0889C84.2778 41.3469 83.258 42.3667 82 42.3667C73.9242 42.3667 68.5738 40.1599 62.9267 38.1328C57.3488 36.1304 51.1818 34.1667 41 34.1667C30.8182 34.1667 24.6512 36.1304 19.0733 38.1328C13.4262 40.1599 8.07584 42.3667 6.79493e-06 42.3667C-1.25798 42.3667 -2.27777 41.3469 -2.27777 40.0889C-2.27777 38.8309 -1.25798 37.8111 6.79493e-06 37.8111C7.15275 37.8111 11.7597 35.9179 17.534 33.845C23.3775 31.7474 30.0961 29.6111 41 29.6111Z" fill="#1D9E75"/>
<path d="M41 44.1889C51.9039 44.1889 58.6225 46.3251 64.466 48.4228C70.2403 50.4956 74.8473 52.3889 82 52.3889C83.258 52.3889 84.2778 53.4087 84.2778 54.6667C84.2778 55.9247 83.258 56.9445 82 56.9445C73.9242 56.9445 68.5738 54.7377 62.9267 52.7106C57.3488 50.7082 51.1818 48.7445 41 48.7445C30.8182 48.7445 24.6512 50.7082 19.0733 52.7106C13.4262 54.7377 8.07584 56.9445 6.79493e-06 56.9445C-1.25798 56.9445 -2.27777 55.9247 -2.27777 54.6667C-2.27777 53.4087 -1.25798 52.3889 6.79493e-06 52.3889C7.15275 52.3889 11.7597 50.4956 17.534 48.4228C23.3775 46.3251 30.0961 44.1889 41 44.1889Z" fill="#0F6E56"/>
<path d="M41 58.7667C51.9039 58.7667 58.6225 60.9029 64.466 63.0006C70.2403 65.0734 74.8473 66.9667 82 66.9667C83.258 66.9667 84.2778 67.9865 84.2778 69.2444C84.2778 70.5024 83.258 71.5222 82 71.5222C73.9242 71.5222 68.5738 69.3155 62.9267 67.2883C57.3488 65.286 51.1818 63.3222 41 63.3222C30.8182 63.3222 24.6512 65.286 19.0733 67.2883C13.4262 69.3155 8.07584 71.5222 6.79493e-06 71.5222C-1.25798 71.5222 -2.27777 70.5024 -2.27777 69.2444C-2.27777 67.9865 -1.25798 66.9667 6.79493e-06 66.9667C7.15275 66.9667 11.7597 65.0734 17.534 63.0006C23.3775 60.9029 30.0961 58.7667 41 58.7667Z" fill="#0D382D"/>
<path d="M105 19H85.5127L83.8984 24.2529C84.1378 24.6134 84.2773 25.0456 84.2773 25.5107C84.2773 26.7687 83.258 27.7891 82 27.7891C73.9242 27.7891 68.5739 25.5819 62.9268 23.5547C57.3489 21.5524 51.1817 19.5889 41 19.5889C30.8183 19.5889 24.6511 21.5524 19.0732 23.5547C13.4261 25.5819 8.07583 27.7891 0 27.7891C-1.25798 27.7891 -2.27734 26.7687 -2.27734 25.5107C-2.27733 25.4056 -2.26868 25.3025 -2.25488 25.2012L-3.91602 19H-24V-5H105V19Z" fill="#9FE1CB"/>
</g>
<defs>
<clipPath id="clip0_5_101">
<rect width="82" height="82" rx="12" fill="white"/>
</clipPath>
</defs>
</svg>
